<svg xmlns="http://www.w3.org/2000/svg" width="256" height="256" viewBox="0 0 100 100"><rect width="100" height="100" rx="20" fill="#ffa31a"></rect><path fill="#000000" d="M20.71 57.83L11.62 57.83L11.62 77.18Q11.08 77.36 10.18 77.58Q9.28 77.81 8.20 77.81L8.20 77.81Q4.24 77.81 4.24 74.48L4.24 74.48L4.24 26.60Q4.24 25.16 4.96 24.40Q5.68 23.63 7.21 23.18L7.21 23.18Q9.82 22.37 13.55 22.01Q17.29 21.65 20.80 21.65L20.80 21.65Q32.23 21.65 37.49 26.47Q42.76 31.28 42.76 39.47L42.76 39.47Q42.76 47.84 37.36 52.84Q31.96 57.83 20.71 57.83L20.71 57.83ZM11.53 51.71L20.26 51.71Q27.46 51.71 31.42 48.74Q35.38 45.77 35.38 39.56L35.38 39.56Q35.38 33.44 31.55 30.61Q27.73 27.77 20.62 27.77L20.62 27.77Q18.19 27.77 15.80 28.00Q13.42 28.22 11.53 28.58L11.53 28.58L11.53 51.71ZM95.23 28.67L95.23 28.67Q95.23 29.93 94.46 30.83Q93.70 31.73 92.71 32.18L92.71 32.18Q90.37 30.56 87.22 29.12Q84.06 27.68 79.03 27.68L79.03 27.68Q74.89 27.68 71.38 29.12Q67.87 30.56 65.26 33.35Q62.65 36.14 61.16 40.37Q59.68 44.60 59.68 50.09L59.68 50.09Q59.68 55.67 61.12 59.81Q62.56 63.95 65.12 66.74Q67.69 69.53 71.29 70.92Q74.89 72.32 79.30 72.32L79.30 72.32Q83.98 72.32 87.44 71.02Q90.91 69.71 93.25 67.91L93.25 67.91Q94.15 68.27 94.96 69.22Q95.77 70.16 95.77 71.42L95.77 71.42Q95.77 73.31 93.61 74.84L93.61 74.84Q91.54 76.28 87.94 77.41Q84.34 78.53 78.76 78.53L78.76 78.53Q73.09 78.53 68.23 76.73Q63.37 74.93 59.81 71.38Q56.26 67.82 54.19 62.51Q52.12 57.20 52.12 50.09L52.12 50.09Q52.12 42.98 54.23 37.63Q56.35 32.27 59.95 28.67Q63.55 25.07 68.36 23.27Q73.18 21.47 78.49 21.47L78.49 21.47Q82.18 21.47 85.28 22.10Q88.39 22.73 90.59 23.77Q92.80 24.80 94.01 26.11Q95.23 27.41 95.23 28.67Z"></path></svg>